<svg width="32" height="32" viewBox="0 0 32 32" fill="none" xmlns="http://www.w3.org/2000/svg">
<path fill-rule="evenodd" clip-rule="evenodd" d="M16.4751 5.2291L16.1422 4.98171C14.5465 3.79594 12.3813 3.12 10.2229 2.76285C8.07398 2.40728 5.99043 2.37702 4.60772 2.4417C4.03695 2.4684 3.60114 2.93328 3.60187 3.58359C3.60636 7.59755 3.61778 17.9611 3.61778 19.5001V19.5089C3.61591 19.6374 3.72908 19.8872 4.05551 20.1262C4.37433 20.3595 4.70986 20.4414 4.89802 20.4089L4.90661 20.4074L4.91523 20.4062C8.54092 19.8882 12.6138 20.6614 15.8988 23.0252C15.982 23.0664 16.1437 23.1076 16.3518 23.1074C16.5574 23.1073 16.7175 23.0668 16.8006 23.0266C20.0548 20.6167 24.2218 19.6022 28.2201 20.2478L28.2265 20.2488C28.6583 20.3234 29.091 19.9578 29.0845 19.5155L29.0844 19.5068L29.0845 3.75894C29.0845 3.04229 28.5591 2.48489 27.9038 2.461C24.2128 2.32646 19.7828 3.1062 16.8242 5.00507L16.4751 5.2291ZM15.6178 20.9671L14.7384 20.5045C11.9177 19.0205 8.90245 18.6001 5.68445 18.6001H5.08445V4.10038L5.64993 4.06779C9.03716 3.87257 12.4804 4.67053 15.3486 6.56624L15.6178 6.74414V20.9671ZM27.6178 18.6535H27.0178C23.7998 18.6535 20.7846 19.0738 17.9638 20.5578L17.0844 21.0204V6.74414L17.3536 6.56624C20.2219 4.67053 23.6651 3.87257 27.0523 4.06779L27.6178 4.10038V18.6535ZM28.4759 24.1781L28.4759 24.1781C27.5534 24.0192 26.6191 23.9373 25.683 23.9334C22.4895 23.931 19.3627 24.8468 16.6752 26.5717L16.3511 26.7797L16.027 26.5717C13.3395 24.8468 10.2127 23.931 7.01927 23.9334C6.0831 23.9373 5.14889 24.0192 4.2263 24.1781L4.2185 24.1794L4.21849 24.1794C4.12303 24.1945 4.03151 24.2284 3.94919 24.279C3.86686 24.3297 3.79536 24.3961 3.7388 24.4745C3.68223 24.5528 3.64172 24.6416 3.61958 24.7357C3.59814 24.8269 3.59436 24.9212 3.60841 25.0138C3.64736 25.2005 3.75762 25.3649 3.91593 25.4718C4.07675 25.5804 4.27405 25.6208 4.46462 25.5842L4.47541 25.5821L4.47543 25.5822C6.465 25.2378 8.5034 25.2949 10.4705 25.7503C12.4368 26.2056 14.2921 27.0495 15.9274 28.2325C16.0512 28.3202 16.1993 28.3673 16.3511 28.3673C16.5029 28.3673 16.651 28.3202 16.7749 28.2325C18.4101 27.0495 20.2654 26.2056 22.2317 25.7503C24.1989 25.2949 26.2372 25.2378 28.2268 25.5822L28.2376 25.5841L28.2376 25.5842C28.4282 25.6208 28.6255 25.5804 28.7863 25.4718C28.9446 25.3649 29.0549 25.2005 29.0938 25.0138C29.1079 24.9212 29.1041 24.8269 29.0827 24.7357C29.0605 24.6416 29.02 24.5528 28.9634 24.4745C28.9069 24.3961 28.8354 24.3297 28.7531 24.279C28.6707 24.2284 28.5792 24.1945 28.4837 24.1794L28.4759 24.1781Z" fill="currentColor"/>
</svg>
