<svg width="18" height="19" viewBox="0 0 18 19" fill="none" xmlns="http://www.w3.org/2000/svg">
<path fill-rule="evenodd" clip-rule="evenodd" d="M3.52727 3.29785L14.7743 14.5449L14.7773 14.5418L14.7803 14.5449L13.8716 15.4535L12.4292 14.0111C11.3746 14.4549 10.2161 14.7002 9 14.7002C5.25 14.7002 2.0475 12.3677 0.75 9.07517C1.35349 7.54378 2.36908 6.22007 3.6602 5.24214L2.62159 4.20353L3.52727 3.29785ZM6.01361 3.96683L7.63028 5.5835C8.05465 5.41675 8.51669 5.32517 9 5.32517C11.07 5.32517 12.75 7.00517 12.75 9.07517C12.75 9.55848 12.6584 10.0205 12.4917 10.4449L14.6822 12.6354C15.8107 11.6899 16.7009 10.4685 17.25 9.07517C15.9525 5.78267 12.75 3.45017 9 3.45017C7.95189 3.45017 6.94655 3.63238 6.01361 3.96683ZM11.2466 9.19985C11.2489 9.15858 11.25 9.11701 11.25 9.07517C11.25 7.83017 10.245 6.82517 9 6.82517C8.95816 6.82517 8.91659 6.8263 8.87532 6.82855L11.2466 9.19985ZM10.7892 12.3711L9.64875 11.2307C9.44342 11.2922 9.22565 11.3252 9 11.3252C7.755 11.3252 6.75 10.3202 6.75 9.07517C6.75 8.84952 6.78301 8.63175 6.84449 8.42642L5.70402 7.28596C5.41452 7.81782 5.25 8.4274 5.25 9.07517C5.25 11.1452 6.93 12.8252 9 12.8252C9.64777 12.8252 10.2574 12.6607 10.7892 12.3711Z" fill="currentColor"/>
</svg>
