<svg width="18" height="19" viewBox="0 0 18 19" fill="none" xmlns="http://www.w3.org/2000/svg">
<g clip-path="url(#clip0_2266_1076)">
<path fill-rule="evenodd" clip-rule="evenodd" d="M0.75 8.7002C2.0475 5.4077 5.25 3.0752 9 3.0752C12.75 3.0752 15.9525 5.4077 17.25 8.7002C15.9525 11.9927 12.75 14.3252 9 14.3252C5.25 14.3252 2.0475 11.9927 0.75 8.7002ZM15.6149 8.7002C14.3774 6.1727 11.8424 4.5752 8.99996 4.5752C6.15748 4.5752 3.62249 6.1727 2.385 8.7002C3.62249 11.2277 6.15748 12.8252 8.99996 12.8252C11.8424 12.8252 14.3774 11.2277 15.6149 8.7002ZM9 6.8252C10.035 6.8252 10.875 7.6652 10.875 8.7002C10.875 9.7352 10.035 10.5752 9 10.5752C7.965 10.5752 7.125 9.7352 7.125 8.7002C7.125 7.6652 7.965 6.8252 9 6.8252ZM5.625 8.7002C5.625 6.8402 7.14 5.3252 9 5.3252C10.86 5.3252 12.375 6.8402 12.375 8.7002C12.375 10.5602 10.86 12.0752 9 12.0752C7.14 12.0752 5.625 10.5602 5.625 8.7002Z" fill="currentColor"/>
</g>
<defs>
<clipPath id="clip0_2266_1076">
<rect width="18" height="18" fill="white" transform="translate(0 0.0751953)"/>
</clipPath>
</defs>
</svg>
