<svg width="32" height="32" viewBox="0 0 32 32" fill="none" xmlns="http://www.w3.org/2000/svg">
<path fill-rule="evenodd" clip-rule="evenodd" d="M16.0073 15.8396C15.8527 15.9735 15.7769 16.177 15.8062 16.3795C15.8356 16.5819 15.9661 16.7555 16.1525 16.8398C17.914 17.6375 19.4085 18.9256 20.4573 20.5501C21.5061 22.1746 22.0648 24.0668 22.0667 26.0004C22.0666 26.1947 21.9893 26.3811 21.8519 26.5185C21.7144 26.656 21.5278 26.7333 21.3333 26.7333C21.1389 26.7333 20.9523 26.656 20.8148 26.5185C20.6773 26.381 20.6 26.1944 20.6 25.9999C20.6 23.7191 19.6939 21.5316 18.0811 19.9188C16.4683 18.306 14.2809 17.3999 12 17.3999C9.71915 17.3999 7.53171 18.306 5.9189 19.9188C4.30609 21.5316 3.40002 23.7191 3.40002 25.9999C3.40002 26.1944 3.32275 26.381 3.18523 26.5185C3.0477 26.656 2.86118 26.7333 2.66668 26.7333C2.47219 26.7333 2.28566 26.656 2.14814 26.5185C2.01067 26.381 1.93341 26.1946 1.93335 26.0002C1.93527 24.0666 2.49399 22.1745 3.54273 20.5501C4.59153 18.9256 6.08603 17.6375 7.84752 16.8398C8.03388 16.7555 8.16441 16.5819 8.19379 16.3795C8.22318 16.177 8.14738 15.9735 7.9927 15.8396C7.34633 15.2801 6.82789 14.5881 6.47257 13.8106C6.11724 13.033 5.93334 12.1882 5.93335 11.3333C5.93335 9.72429 6.57251 8.18121 7.71023 7.04349C8.84796 5.90577 10.391 5.2666 12 5.2666C13.609 5.2666 15.1521 5.90577 16.2898 7.04349C17.4275 8.18121 18.0667 9.72429 18.0667 11.3333C18.0667 12.1882 17.8828 13.033 17.5275 13.8106C17.1721 14.5881 16.6537 15.2801 16.0073 15.8396ZM24.538 15.3615C24.4208 15.4936 24.3676 15.6706 24.3928 15.8455C24.418 16.0203 24.5189 16.1751 24.6687 16.2687C26.3171 17.2989 27.6746 18.7335 28.6124 20.4361C29.5502 22.1388 30.037 24.0529 30.0267 25.9967V25.9999C30.0267 26.1944 29.9494 26.381 29.8119 26.5185C29.6744 26.656 29.4878 26.7333 29.2933 26.7333C29.0989 26.7333 28.9123 26.656 28.7748 26.5185C28.6377 26.3814 28.5605 26.1957 28.56 26.0019C28.5744 24.1098 28.0481 22.2528 27.043 20.6496C26.0401 19.0501 24.6022 17.7695 22.8979 16.9578L22.7627 16.885L22.2662 16.554L22.2632 16.552C22.1591 16.4836 22.0743 16.3898 22.0165 16.2794C21.9589 16.1694 21.9302 16.0465 21.9331 15.9223C21.9364 15.7969 21.9719 15.6743 22.0361 15.5665C22.1003 15.4586 22.1911 15.3691 22.2998 15.3063L22.3 15.3062C22.9975 14.9035 23.577 14.3248 23.9806 13.6279C24.3843 12.9309 24.5978 12.1403 24.6 11.3349V11.3333C24.6 10.1133 24.1154 8.94324 23.2527 8.08058C22.39 7.21791 21.22 6.73327 20 6.73327C19.8055 6.73327 19.619 6.65601 19.4815 6.51848C19.3439 6.38095 19.2667 6.19443 19.2667 5.99994C19.2667 5.80544 19.3439 5.61892 19.4815 5.48139C19.619 5.34386 19.8055 5.2666 20 5.2666H20.0002C21.1696 5.26629 22.3142 5.60397 23.2962 6.23899C24.2781 6.87402 25.0557 7.77933 25.5351 8.84593C26.0146 9.91254 26.1756 11.095 25.9987 12.251C25.8218 13.4069 25.3145 14.4871 24.538 15.3615ZM9.44439 15.158C10.2009 15.6635 11.0902 15.9333 12 15.9333C13.22 15.9333 14.39 15.4486 15.2527 14.586C16.1154 13.7233 16.6 12.5533 16.6 11.3333C16.6 10.4235 16.3302 9.53411 15.8248 8.77765C15.3193 8.02118 14.6009 7.43159 13.7604 7.08342C12.9198 6.73526 11.9949 6.64416 11.1026 6.82166C10.2103 6.99915 9.39065 7.43726 8.74732 8.08058C8.104 8.7239 7.6659 9.54354 7.4884 10.4359C7.31091 11.3282 7.40201 12.2531 7.75017 13.0936C8.09833 13.9342 8.68793 14.6526 9.44439 15.158Z" fill="currentColor"/>
</svg>
