<svg width="32" height="32" viewBox="0 0 32 32" fill="none" xmlns="http://www.w3.org/2000/svg">
<path fill-rule="evenodd" clip-rule="evenodd" d="M16 3.27466C16.8265 3.27466 17.624 3.57927 18.24 4.13026L26.2423 11.1456C26.5956 11.4622 26.8778 11.8499 27.0705 12.2834C27.2635 12.7178 27.3622 13.1882 27.36 13.6636V25.3332C27.36 26.2244 27.006 27.079 26.3759 27.7091C25.7458 28.3392 24.8911 28.6932 24 28.6932H8.00002C7.10889 28.6932 6.25426 28.3392 5.62414 27.7091C4.99402 27.079 4.64002 26.2244 4.64002 25.3332L4.64004 13.6799L4.64 13.6748C4.6362 13.1976 4.73413 12.725 4.92725 12.2885C5.11995 11.853 5.40304 11.4634 5.75772 11.1457L13.7553 4.13451L13.76 4.13026C14.376 3.57927 15.1735 3.27466 16 3.27466ZM12.6934 27.3066H19.3067V19.9999C19.3067 19.4765 19.0988 18.9746 18.7287 18.6045C18.3586 18.2345 17.8567 18.0266 17.3334 18.0266H14.6667C14.1433 18.0266 13.6414 18.2345 13.2713 18.6045C12.9013 18.9746 12.6934 19.4765 12.6934 19.9999V27.3066ZM20.6933 19.9999V27.3066H24C24.5234 27.3066 25.0253 27.0987 25.3954 26.7286C25.7654 26.3585 25.9734 25.8566 25.9734 25.3332V13.6658C25.973 13.3856 25.913 13.1087 25.7973 12.8535C25.6816 12.5983 25.5129 12.3707 25.3024 12.1858L17.302 5.18538C16.9419 4.86926 16.4792 4.69492 16 4.69492C15.521 4.69492 15.0576 4.86981 14.6976 5.18576L6.69858 12.1849L6.69762 12.1858C6.48713 12.3707 6.31843 12.5983 6.20274 12.8535C6.08706 13.1087 6.02704 13.3864 6.02669 13.6666V25.3332C6.02669 25.8566 6.23459 26.3585 6.60466 26.7286C6.97473 27.0987 7.47666 27.3066 8.00002 27.3066H11.3067V19.9999C11.3067 19.1088 11.6607 18.2541 12.2908 17.624C12.9209 16.9939 13.7756 16.6399 14.6667 16.6399H17.3334C18.2245 16.6399 19.0791 16.9939 19.7092 17.624C20.3394 18.2541 20.6933 19.1088 20.6933 19.9999Z"  fill="currentColor" />
</svg>
