<svg width="32" height="32" viewBox="0 0 32 32" fill="none" xmlns="http://www.w3.org/2000/svg">
<path fill-rule="evenodd" clip-rule="evenodd" d="M29.3395 25.2507L28.008 20.1108L23.8081 4.65801C23.7609 4.48076 23.6454 4.32942 23.4869 4.23716C23.3283 4.14489 23.1397 4.11922 22.9622 4.16575L22.96 4.16633L17.4245 5.59668L17.1647 5.30876C17.1007 5.2378 17.0227 5.18084 16.9356 5.14146C16.8495 5.10255 16.7564 5.08164 16.6619 5.08001H3.33323C3.14934 5.08001 2.97299 5.15306 2.84297 5.28309C2.71294 5.41311 2.63989 5.58946 2.63989 5.77335V27.1067C2.63989 27.2906 2.71294 27.4669 2.84297 27.5969C2.97299 27.727 3.14934 27.8 3.33323 27.8H16.6666C16.8504 27.8 17.0268 27.727 17.1568 27.5969C17.2868 27.4669 17.3599 27.2906 17.3599 27.1067V16.44L18.6181 16.2745L21.5513 27.234C21.5919 27.3852 21.6826 27.5183 21.8085 27.6115C21.9344 27.7046 22.0881 27.7524 22.2446 27.7471L22.2919 27.7454L22.3389 27.7508C22.3924 27.7569 22.4463 27.7581 22.5 27.7545L28.8881 26.0484C28.9766 26.0247 29.0595 25.9837 29.132 25.9278C29.1984 25.8767 29.2549 25.8139 29.2989 25.7427C29.3665 25.5884 29.3811 25.4158 29.3399 25.252L29.3395 25.2507ZM3.98656 26.4667H9.26656V22.52H3.98656V26.4667ZM3.98656 21.1333H9.26656V11.8533H3.98656V21.1333ZM3.98656 10.4667H9.26656V6.52001H3.98656V10.4667ZM10.6532 26.4667H15.9332V22.52H10.6532V26.4667ZM10.6532 21.1333H15.9332V11.8533H10.6532V21.1333ZM10.6532 10.4667H15.9332V6.52001H10.6532V10.4667ZM22.6114 5.68249L17.5087 7.05495L18.535 10.8642L23.6378 9.49175L22.6114 5.68249ZM18.8966 12.2013L21.2938 21.1712L26.3965 19.7988L23.9994 10.8288L18.8966 12.2013ZM21.602 22.5083L22.6284 26.3175L27.7311 24.9451L26.7048 21.1358L21.602 22.5083Z" fill="currentColor"/>
</svg>
