<svg width="21" height="20" viewBox="0 0 21 20" fill="none" xmlns="http://www.w3.org/2000/svg">
<path d="M13.2209 3.75971C13.7907 3.07727 14.186 2.14036 14.186 1.20345C14.186 1.07622 14.1744 0.937414 14.1512 0.833313C13.2326 0.868013 12.1163 1.44635 11.4535 2.23289C10.9302 2.8228 10.4419 3.75971 10.4419 4.70818C10.4419 4.84698 10.4651 4.99735 10.4767 5.04362C10.5349 5.05518 10.6279 5.06675 10.7209 5.06675C11.5581 5.06675 12.6047 4.51155 13.2209 3.75971ZM13.8721 5.26339C12.4767 5.26339 11.3488 6.10776 10.6279 6.10776C9.86047 6.10776 8.83721 5.30965 7.62791 5.30965C5.33721 5.30965 3 7.2066 3 10.7576C3 12.99 3.87209 15.3265 4.93023 16.8417C5.84884 18.1256 6.65116 19.1666 7.7907 19.1666C8.93023 19.1666 9.44186 18.4148 10.8605 18.4148C12.2907 18.4148 12.6163 19.1435 13.8721 19.1435C15.1279 19.1435 15.9535 18.01 16.7326 16.888C17.6163 15.6041 17.9884 14.3549 18 14.2855C17.9302 14.2623 15.5349 13.3023 15.5349 10.5725C15.5349 8.22448 17.4186 7.1719 17.5233 7.09094C16.2907 5.30965 14.3953 5.26339 13.8721 5.26339Z" fill="currentColor"/>
</svg>
