<svg width="33" height="32" viewBox="0 0 33 32" fill="none" xmlns="http://www.w3.org/2000/svg">
<path fill-rule="evenodd" clip-rule="evenodd" d="M5.5 3.49033C5.5 3.13135 5.79101 2.84033 6.15 2.84033H8.72138H13.8642H23.7214C25.7372 2.84033 27.3714 4.47449 27.3714 6.49033V25.1817C27.3714 27.1975 25.7372 28.8317 23.7214 28.8317H6.15C5.79101 28.8317 5.5 28.5407 5.5 28.1817V3.49033ZM13.2142 4.14033H9.37138V8.35729L11.0225 7.60231C11.1942 7.52383 11.3914 7.52383 11.5631 7.60231L13.2142 8.35729V4.14033ZM8.07138 4.14033V9.36923C8.07138 9.59049 8.18393 9.79655 8.37009 9.91613C8.55625 10.0357 8.79046 10.0524 8.99168 9.96036L11.2928 8.90818L13.5939 9.96036C13.7951 10.0524 14.0293 10.0357 14.2155 9.91613C14.4017 9.79655 14.5142 9.59049 14.5142 9.36923V4.14033H21.5784L21.5784 27.5317H6.8V4.14033H8.07138ZM23.7214 27.5317H22.8784V4.14033H23.7214C25.0192 4.14033 26.0714 5.19246 26.0714 6.49033V25.1817C26.0714 26.4796 25.0192 27.5317 23.7214 27.5317Z" fill="currentColor"/>
</svg>
